<svg xmlns="http://www.w3.org/2000/svg" 
    xmlns:xlink="http://www.w3.org/1999/xlink" version="1.1" id="Layer_1" x="0px" y="0px" width="50px" height="50px" viewBox="-454 256 50 50" style="enable-background:new -454 256 50 50;" xml:space="preserve">
    <g id="Layer_4" style="display:none;">
        <path style="display:inline;fill:#0072C6;" d="M-684,655.5c0-3.2-2.6-5.8-5.8-5.8c-0.2,0-0.5,0-0.7,0c0.4-1.3,0.5-2.7,0.5-4.1   c0.1-8.6-6.9-15.6-15.4-15.6c-6.8,0-12.6,4.4-14.6,10.6c-1.1-0.4-2.2-0.6-3.4-0.6c-5.9,0-10.6,4.8-10.6,10.7   c0,5.9,4.7,10.6,10.5,10.6l0,0l0,0h34.1l0,0C-686.3,661-684,658.5-684,655.5"/>
    </g>
    <g id="Layer_2" style="display:none;">
        <g style="display:inline;">
            <path style="fill:#5D5D5D;" d="M-685.5,671.7l-15.1-26.4v-10.7h0.3c1.9,0,3.3-1.4,3.3-3.3c0-1.9-1.6-3.3-3.3-3.3H-717    c-1.9,0-3.3,1.4-3.3,3.3c0,1.9,1.4,3.3,3.3,3.3h0.3v10.7l-15.3,26.4c-1.7,2.9-0.3,5.3,3,5.3h40.5    C-685.1,677-683.8,674.7-685.5,671.7z"/>
            <path style="opacity:0.25;fill:#FFFFFF;enable-background:new    ;" d="M-732.1,671.7l15.3-26.4v-10.7h-0.3    c-1.9,0-3.3-1.4-3.3-3.3c0-1.9,1.4-3.3,3.3-3.3h7.2v17.3L-718,677h-11C-732.4,677-733.7,674.7-732.1,671.7z"/>
        </g>
    </g>
    <g id="Layer_1_1_" style="display:none;">
        <path style="display:inline;fill:#7A7A7A;stroke:#FFFFFF;stroke-width:0.5;stroke-miterlimit:10;" d="M-694.1,672.6h-0.5h-5.4h-0.3   c0.7,2.6-0.3,3-4.7,3v1.4h5.6h4.1h5.3v-1.4C-694.4,675.6-694.8,675.2-694.1,672.6"/>
        <path style="display:inline;fill:#A0A1A2;stroke:#FFFFFF;stroke-width:0.5;stroke-miterlimit:10;" d="M-687.4,655.9h-20.3   c-0.7,0-1.2,0.6-1.2,1.3v14.1c0,0.7,0.6,1.3,1.2,1.3h20.3c0.7,0,1.4-0.6,1.4-1.3v-14.1C-686,656.5-686.7,655.9-687.4,655.9"/>
        <path style="display:inline;opacity:0.2;fill:#FFFFFF;enable-background:new    ;" d="M-687.4,655.9L-687.4,655.9h-20.3   c-0.7,0-1.2,0.6-1.2,1.3v14.1c0,0.7,0.6,1.3,1.2,1.3h0.5L-687.4,655.9z"/>
        <polygon style="display:inline;fill:#804998;" points="-687.8,657.6 -687.8,670.8 -707.2,670.8 -707.2,657.6  "/>
        <polygon style="display:inline;fill:#59B4D9;" points="-707.2,670.8 -707.2,670.8 -707.2,657.6 -689.4,657.6 -689.4,657.6    -707.2,657.6  "/>
        <rect x="-704.9" y="675.6" style="display:inline;fill:#A0A1A2;" width="15" height="1.4"/>
        <path style="display:inline;fill:#B8D432;" d="M-697.2,656.8c0,0.2-0.1,0.3-0.3,0.3s-0.3-0.1-0.3-0.3s0.1-0.3,0.3-0.3   C-697.4,656.5-697.2,656.6-697.2,656.8"/>
        <path style="display:inline;fill:#FFFFFF;" d="M-697.2,663.8L-697.2,663.8l-4.1-2.3l-0.1-0.1c0,0,0-0.1,0.1-0.1l4-2.3h0.1l4,2.3   l0.1,0.1c0,0,0,0.1-0.1,0.1L-697.2,663.8L-697.2,663.8"/>
        <path style="display:inline;opacity:0.7;fill:#FFFFFF;enable-background:new    ;" d="M-697.8,669.5L-697.8,669.5l-4.1-2.3   l-0.1-0.1v-4.7c0,0,0-0.1,0.1-0.1h0.1l4,2.3l0.1,0.1L-697.8,669.5C-697.7,669.4-697.7,669.4-697.8,669.5   C-697.7,669.5-697.8,669.5-697.8,669.5"/>
        <path style="display:inline;opacity:0.4;fill:#FFFFFF;enable-background:new    ;" d="M-696.6,669.5   C-696.7,669.5-696.7,669.5-696.6,669.5c-0.1,0-0.1-0.1-0.1-0.1v-4.6c0,0,0-0.1,0.1-0.1l4-2.3h0.1l0.1,0.1v4.6c0,0,0,0.1-0.1,0.1   L-696.6,669.5L-696.6,669.5"/>
    </g>
    <g id="Layer_1_copy" style="display:none;">
        <path style="display:inline;fill:#5D5D5D;" d="M-694.1,672.6h-0.5h-5.4h-0.3c0.7,2.6-0.3,3-4.7,3v1.4h5.6h4.1h5.3v-1.4   C-694.4,675.6-694.8,675.2-694.1,672.6"/>
        <path style="display:inline;fill:#5D5D5D;" d="M-687.4,655.9h-20.3c-0.7,0-1.2,0.6-1.2,1.3v14.1c0,0.7,0.6,1.3,1.2,1.3h20.3   c0.7,0,1.4-0.6,1.4-1.3v-14.1C-686,656.5-686.7,655.9-687.4,655.9"/>
        <polygon style="display:inline;fill:#5D5D5D;" points="-687.8,657.6 -687.8,670.8 -707.2,670.8 -707.2,657.6  "/>
        <rect x="-704.9" y="675.6" style="display:inline;fill:#5D5D5D;" width="15" height="1.4"/>
    </g>
    <g id="Layer_3" style="display:none;">
        <g style="display:inline;">
            <path style="fill:#3999C6;" d="M-692.1,663.8c0.3-0.3,0.3-0.9,0-1.2l-1.6-1.6l-7.4-7.2c-0.3-0.3-0.8-0.3-1.2,0l0,0    c-0.3,0.3-0.4,0.9,0,1.2l7.7,7.6c0.3,0.3,0.3,0.9,0,1.2l-7.8,7.8c-0.3,0.3-0.3,0.9,0,1.2l0,0c0.3,0.3,0.9,0.3,1.2,0l7.3-7.2    c0,0,0,0,0.1-0.1L-692.1,663.8z"/>
            <path style="fill:#3999C6;" d="M-725.8,663.8c-0.3-0.3-0.3-0.9,0-1.2l1.6-1.6l7.4-7.2c0.3-0.3,0.8-0.3,1.2,0l0,0    c0.3,0.3,0.4,0.9,0,1.2l-7.6,7.6c-0.3,0.3-0.3,0.9,0,1.2l7.7,7.8c0.3,0.3,0.3,0.9,0,1.2l0,0c-0.3,0.3-0.9,0.3-1.2,0l-7.4-7.2    c0,0,0,0-0.1-0.1L-725.8,663.8z"/>
            <path style="fill:#7FBA00;" d="M-713.6,663.2c0,1.3-1.1,2.2-2.2,2.2c-1.1,0-2.4-1.1-2.4-2.2s1-2.2,2.4-2.2    C-714.5,660.9-713.6,662-713.6,663.2z"/>
            <path style="fill:#7FBA00;" d="M-706.7,663.2c0,1.3-1.1,2.2-2.2,2.2c-1.1,0-2.4-1.1-2.4-2.2s1.1-2.2,2.4-2.2    C-707.6,661-706.7,662-706.7,663.2z"/>
            <circle style="fill:#7FBA00;" cx="-702" cy="663.2" r="2.2"/>
        </g>
    </g>
    <g id="Layer_3_copy" style="display:none;">
        <g style="display:inline;">
            <path style="fill:#5D5D5D;stroke:#000000;stroke-width:0.25;stroke-miterlimit:10;" d="M-691.2,664.4c0.3-0.3,0.3-0.9,0-1.2    l-1.6-1.6l-7.4-7.2c-0.3-0.3-0.8-0.3-1.2,0l0,0c-0.3,0.3-0.4,0.9,0,1.2l7.7,7.6c0.3,0.3,0.3,0.9,0,1.2l-7.8,7.8    c-0.3,0.3-0.3,0.9,0,1.2l0,0c0.3,0.3,0.9,0.3,1.2,0l7.3-7.2c0,0,0,0,0.1-0.1L-691.2,664.4z"/>
            <path style="fill:#5D5D5D;stroke:#000000;stroke-width:0.25;stroke-miterlimit:10;" d="M-724.9,664.4c-0.3-0.3-0.3-0.9,0-1.2    l1.6-1.6l7.4-7.2c0.3-0.3,0.8-0.3,1.2,0l0,0c0.3,0.3,0.4,0.9,0,1.2l-7.6,7.6c-0.3,0.3-0.3,0.9,0,1.2l7.7,7.8    c0.3,0.3,0.3,0.9,0,1.2l0,0c-0.3,0.3-0.9,0.3-1.2,0l-7.4-7.2c0,0,0,0-0.1-0.1L-724.9,664.4z"/>
            <path style="fill:#7FBA00;stroke:#000000;stroke-width:0.25;stroke-miterlimit:10;" d="M-713.1,663.5c0,1.5-1.2,2.5-2.5,2.5    c-1.3,0-2.7-1.2-2.7-2.5s1.1-2.5,2.7-2.5C-714.1,661-713.1,662.2-713.1,663.5z"/>
            <path style="fill:#7FBA00;stroke:#000000;stroke-width:0.25;stroke-miterlimit:10;" d="M-705.3,663.5c0,1.5-1.2,2.5-2.5,2.5    s-2.7-1.2-2.7-2.5s1.2-2.5,2.7-2.5S-705.3,662.2-705.3,663.5z"/>
            <circle style="fill:#7FBA00;stroke:#000000;stroke-width:0.25;stroke-miterlimit:10;" cx="-699.9" cy="663.5" r="2.5"/>
        </g>
    </g>
    <g>
        <path style="fill:#511670;" d="M-438.1,285.2c0,0-0.1,0-0.1,0l-7.5-4.3c-0.1,0-0.1-0.1-0.1-0.2c0-0.1,0-0.2,0.1-0.2l7.4-4.3   c0.1,0,0.2,0,0.2,0l7.5,4.3c0.1,0,0.1,0.1,0.1,0.2c0,0.1,0,0.2-0.1,0.2l-7.4,4.3C-438,285.2-438,285.2-438.1,285.2"/>
        <path style="fill:#9335AA;" d="M-439.2,295.7c0,0-0.1,0-0.1,0l-7.4-4.3c-0.1,0-0.1-0.1-0.1-0.2v-8.6c0-0.1,0-0.2,0.1-0.2   c0.1,0,0.2,0,0.2,0l7.4,4.3c0.1,0,0.1,0.1,0.1,0.2v8.6c0,0.1,0,0.2-0.1,0.2C-439.1,295.7-439.1,295.7-439.2,295.7"/>
        <path style="fill:#9335AA;" d="M-437.1,295.7c0,0-0.1,0-0.1,0c-0.1,0-0.1-0.1-0.1-0.2v-8.6c0-0.1,0-0.2,0.1-0.2l7.4-4.3   c0.1,0,0.2,0,0.2,0c0.1,0,0.1,0.1,0.1,0.2v8.6c0,0.1,0,0.2-0.1,0.2l-7.4,4.3C-437,295.7-437,295.7-437.1,295.7"/>
        <path style="fill:#511670;" d="M-418.9,285.2c0,0-0.1,0-0.1,0l-7.5-4.3c-0.1,0-0.1-0.1-0.1-0.2c0-0.1,0-0.2,0.1-0.2l7.4-4.3   c0.1,0,0.2,0,0.2,0l7.5,4.3c0.1,0,0.1,0.1,0.1,0.2c0,0.1,0,0.2-0.1,0.2l-7.4,4.3C-418.8,285.2-418.8,285.2-418.9,285.2"/>
        <path style="fill:#9335AA;" d="M-419.9,295.7c0,0-0.1,0-0.1,0l-7.4-4.3c-0.1,0-0.1-0.1-0.1-0.2v-8.6c0-0.1,0-0.2,0.1-0.2   c0.1,0,0.2,0,0.2,0l7.4,4.3c0.1,0,0.1,0.1,0.1,0.2v8.6c0,0.1,0,0.2-0.1,0.2C-419.9,295.7-419.9,295.7-419.9,295.7"/>
        <path style="fill:#9335AA;" d="M-417.8,295.7c0,0-0.1,0-0.1,0c-0.1,0-0.1-0.1-0.1-0.2v-8.6c0-0.1,0-0.2,0.1-0.2l7.4-4.3   c0.1,0,0.2,0,0.2,0c0.1,0,0.1,0.1,0.1,0.2v8.6c0,0.1,0,0.2-0.1,0.2l-7.4,4.3C-417.7,295.7-417.8,295.7-417.8,295.7"/>
        <path style="fill:#511670;" d="M-428.5,268.7c0,0-0.1,0-0.1,0l-7.5-4.3c-0.1,0-0.1-0.1-0.1-0.2c0-0.1,0-0.2,0.1-0.2l7.4-4.3   c0.1,0,0.2,0,0.2,0l7.5,4.3c0.1,0,0.1,0.1,0.1,0.2c0,0.1,0,0.2-0.1,0.2l-7.4,4.3C-428.5,268.6-428.5,268.7-428.5,268.7"/>
        <path style="fill:#9335AA;" d="M-429.6,279.1c0,0-0.1,0-0.1,0l-7.4-4.3c-0.1,0-0.1-0.1-0.1-0.2V266c0-0.1,0-0.2,0.1-0.2   c0.1,0,0.2,0,0.2,0l7.4,4.3c0.1,0,0.1,0.1,0.1,0.2v8.6c0,0.1,0,0.2-0.1,0.2C-429.5,279.1-429.6,279.1-429.6,279.1"/>
        <path style="fill:#9335AA;" d="M-427.5,279.1c0,0-0.1,0-0.1,0c-0.1,0-0.1-0.1-0.1-0.2v-8.6c0-0.1,0-0.2,0.1-0.2l7.4-4.3   c0.1,0,0.2,0,0.2,0c0.1,0,0.1,0.1,0.1,0.2v8.6c0,0.1,0,0.2-0.1,0.2l-7.4,4.3C-427.4,279.1-427.5,279.1-427.5,279.1"/>
        <path style="opacity:0.5;fill:#FFFFFF;enable-background:new    ;" d="M-437.1,295.7c0,0-0.1,0-0.1,0c-0.1,0-0.1-0.1-0.1-0.2v-8.6   c0-0.1,0-0.2,0.1-0.2l7.4-4.3c0.1,0,0.2,0,0.2,0c0.1,0,0.1,0.1,0.1,0.2v8.6c0,0.1,0,0.2-0.1,0.2l-7.4,4.3   C-437,295.7-437,295.7-437.1,295.7"/>
        <path style="opacity:0.5;fill:#FFFFFF;enable-background:new    ;" d="M-417.8,295.7c0,0-0.1,0-0.1,0c-0.1,0-0.1-0.1-0.1-0.2v-8.6   c0-0.1,0-0.2,0.1-0.2l7.4-4.3c0.1,0,0.2,0,0.2,0c0.1,0,0.1,0.1,0.1,0.2v8.6c0,0.1,0,0.2-0.1,0.2l-7.4,4.3   C-417.7,295.7-417.8,295.7-417.8,295.7"/>
        <path style="opacity:0.5;fill:#FFFFFF;enable-background:new    ;" d="M-427.5,279.1c0,0-0.1,0-0.1,0c-0.1,0-0.1-0.1-0.1-0.2v-8.6   c0-0.1,0-0.2,0.1-0.2l7.4-4.3c0.1,0,0.2,0,0.2,0c0.1,0,0.1,0.1,0.1,0.2v8.6c0,0.1,0,0.2-0.1,0.2l-7.4,4.3   C-427.4,279.1-427.5,279.1-427.5,279.1"/>
    </g>
    <path style="fill:#7A7A7A;" d="M-444.4,300.6c-0.2,0-0.5-0.1-0.7-0.2l-6.8-4c-1.2-0.7-2-2.1-2-3.4v-25.2c0-1.3,0.8-2.8,2-3.4l6.8-4  c0.7-0.4,1.6-0.2,2,0.5c0.4,0.7,0.2,1.6-0.5,2l-6.8,4c-0.2,0.1-0.5,0.6-0.5,0.9V293c0,0.3,0.3,0.8,0.5,0.9l6.8,4  c0.7,0.4,0.9,1.3,0.5,2C-443.5,300.3-443.9,300.6-444.4,300.6z"/>
    <path style="fill:#7A7A7A;" d="M-413.6,260.3c0.2,0,0.5,0.1,0.7,0.2l6.8,4c1.2,0.7,2,2.1,2,3.4V293c0,1.3-0.8,2.8-2,3.4l-6.8,4  c-0.7,0.4-1.6,0.2-2-0.5c-0.4-0.7-0.2-1.6,0.5-2l6.8-4c0.2-0.1,0.5-0.6,0.5-0.9v-25.2c0-0.3-0.3-0.8-0.5-0.9l-6.8-4  c-0.7-0.4-0.9-1.3-0.5-2C-414.5,260.5-414.1,260.3-413.6,260.3z"/>
</svg>